#!OML:ASF E:\Style4\Style4.ASF
:FULLY-SPECIFIED
:DEGREES
814
root -1.18309 17.3331 -1.8793 6.71227 21.7359 2.35015
lowerback 13.7094 6.63108 0.17947
upperback 6.58593 8.77564 -3.06355
thorax -0.141536 4.48674 -4.4481
lowerneck -0.361051 -3.90254 -4.38521
upperneck 0.312903 -5.22182 7.00116
head 0.486699 -2.59849 2.95252
rclavicle -1.87056e-013 5.26779e-014
rhumerus 65.7194 45.8542 -5.37534
rradius 91.6318
rwrist 10.7584
rhand -4.90641 19.6112
rfingers 7.12502
rthumb 20.8833 -9.28476
lclavicle -1.87056e-013 5.26779e-014
lhumerus -23.5332 -40.6724 70.1799
lradius 92.62
lwrist 19.5077
lhand -1.9739 27.0115
lfingers 7.12502
lthumb 23.6984 55.5705
rfemur -28.6995 -18.5657 22.2778
rtibia 45.9544
rfoot -24.1429 -19.1418
rtoes -5.8745
lfemur -32.3587 -9.26464 -16.1009
ltibia 40.5721
lfoot -13.6254 -4.46002
ltoes -11.5058
815
root -1.2246 17.3361 -1.86037 6.65595 21.9976 2.16694
lowerback 13.655 6.64791 0.116237
upperback 6.48294 8.78783 -3.17442
thorax -0.211588 4.49144 -4.53126
lowerneck -0.430394 -3.82365 -4.4569
upperneck 0.298629 -5.11596 7.42909
head 0.503477 -2.54286 3.1114
rclavicle 6.94504e-014 -2.29596e-014
rhumerus 66.5771 44.9085 -4.67896
rradius 92.0342
rwrist 11.2697
rhand -4.89143 19.5613
rfingers 7.12502
rthumb 20.8977 -9.33312
lclavicle 6.94504e-014 -2.29596e-014
lhumerus -24.0854 -40.6266 71.3261
lradius 92.4827
lwrist 19.2435
lhand -2.53443 26.95
lfingers 7.12502
lthumb 23.1607 55.5777
rfemur -28.5584 -18.6782 22.6494
rtibia 45.7541
rfoot -24.2477 -19.1726
rtoes -5.54152
lfemur -32.4466 -9.34668 -15.735
ltibia 40.6177
lfoot -13.5565 -4.56582
ltoes -11.49
816
root -1.26715 17.3368 -1.83887 6.66113 22.2552 2.03546
lowerback 13.4608 6.72083 0.0101136
upperback 6.44842 8.87548 -3.30748
thorax -0.131761 4.53714 -4.59871
lowerneck -0.65527 -3.81251 -4.44538
upperneck 0.240011 -5.09449 7.80941
head 0.534678 -2.52677 3.23518
rclavicle 2.19409e-014 -1.9133e-015
rhumerus 67.1913 43.8849 -4.15069
rradius 92.3851
rwrist 11.6876
rhand -4.84022 19.8396
rfingers 7.12502
rthumb 20.9469 -9.04934
lclavicle 2.19409e-014 -1.9133e-015
lhumerus -24.2815 -40.7878 72.3175
lradius 92.2706
lwrist 18.9599
lhand -2.0946 26.8322
lfingers 7.12502
lthumb 23.5827 55.4062
rfemur -28.4721 -18.7883 22.9837
rtibia 45.5474
rfoot -24.2327 -19.2891
rtoes -5.40642
lfemur -32.6099 -9.38034 -15.4233
ltibia 40.727
lfoot -13.4993 -4.67714
ltoes -11.0083
817
root -1.309 17.3426 -1.81373 6.65554 22.4754 1.8926
lowerback 13.2397 6.82398 -0.0568138
upperback 6.43032 9.00994 -3.46348
thorax -0.00613064 4.60898 -4.71068
lowerneck -0.81761 -3.80998 -4.39845
upperneck 0.0966029 -5.08166 8.19582
head 0.527709 -2.51689 3.35708
rclavicle -5.85421e-014 1.57537e-014
rhumerus 67.6667 42.8451 -3.762
rradius 92.7125
rwrist 11.8418
rhand -4.84732 20.1347
rfingers 7.12502
rthumb 20.9401 -8.75505
lclavicle -5.85421e-014 1.57537e-014
lhumerus -24.3166 -41.1193 73.2105
lradius 92.0377
lwrist 18.7466
lhand -1.82882 26.8709
lfingers 7.12502
lthumb 23.8376 55.4118
rfemur -28.3462 -18.864 23.3211
rtibia 45.3329
rfoot -24.3233 -19.3667
rtoes -5.23067
lfemur -32.7605 -9.32596 -15.1183
ltibia 40.85
lfoot -13.4183 -4.8199
ltoes -10.4704
818
root -1.34916 17.3473 -1.79117 6.63369 22.6121 1.72694
lowerback 13.0972 6.91104 -0.111047
upperback 6.37423 9.12075 -3.6367
thorax 0.041271 4.66781 -4.85796
lowerneck -0.903048 -3.77797 -4.38841
upperneck -0.072331 -5.02873 8.62452
head 0.498636 -2.48879 3.50396
rclavicle -2.28602e-015 -9.24349e-015
rhumerus 68.2927 41.8288 -3.2997
rradius 92.9901
rwrist 12.028
rhand -4.93665 20.1932
rfingers 7.12502
rthumb 20.8543 -8.70597
lclavicle -2.28602e-015 -9.24349e-015
lhumerus -24.4004 -41.3933 74.023
lradius 91.8286
lwrist 18.4965
lhand -2.45162 26.8098
lfingers 7.12502
lthumb 23.2402 55.4275
rfemur -28.2481 -18.8246 23.6761
rtibia 45.1392
rfoot -24.4421 -19.5122
rtoes -5.07673
lfemur -32.9176 -9.19809 -14.8151
ltibia 40.9783
lfoot -13.3348 -4.8685
ltoes -10.7835
819
root -1.38945 17.3476 -1.76993 6.61356 22.8108 1.65555
lowerback 13.0171 6.97886 -0.182284
upperback 6.32607 9.2034 -3.85918
thorax 0.0682311 4.7137 -5.05184
lowerneck -0.933858 -3.77053 -4.38911
upperneck -0.303479 -5.00479 9.07482
head 0.442867 -2.47755 3.66267
rclavicle -4.70126e-014 2.90226e-014
rhumerus 68.8623 40.8345 -2.97011
rradius 93.1568
rwrist 12.4381
rhand -5.00098 20.5527
rfingers 7.12502
rthumb 20.7925 -8.35322
lclavicle -4.70126e-014 2.90226e-014
lhumerus -24.3349 -41.7123 74.6226
lradius 91.609
lwrist 17.9747
lhand -2.90564 26.9872
lfingers 7.12502
lthumb 22.8045 55.6592
rfemur -28.1494 -18.8438 23.9194
rtibia 45.0156
rfoot -24.5419 -19.625
rtoes -4.95368
lfemur -33.0318 -9.14129 -14.6104
ltibia 41.0905
lfoot -13.2491 -4.96296
ltoes -11.0892
820
root -1.43018 17.3441 -1.7454 6.57214 23.0519 1.58482
lowerback 12.9369 7.0597 -0.233895
upperback 6.28927 9.3068 -4.07998
thorax 0.112636 4.77127 -5.2558
lowerneck -0.924007 -3.78909 -4.38617
upperneck -0.593361 -5.01082 9.50066
head 0.36222 -2.48384 3.81422
rclavicle -2.97183e-014 -4.77083e-015
rhumerus 69.3163 39.8544 -2.76393
rradius 93.3226
rwrist 12.6104
rhand -4.86317 20.8033
rfingers 7.12502
rthumb 20.9249 -8.08806
lclavicle -2.97183e-014 -4.77083e-015
lhumerus -24.0748 -42.066 75.0934
lradius 91.3225
lwrist 17.1265
lhand -3.01993 27.2469
lfingers 7.12502
lthumb 22.6948 55.9323
rfemur -28.0425 -18.8899 24.155
rtibia 44.9559
rfoot -24.7478 -19.6781
rtoes -4.321
lfemur -33.0762 -9.09861 -14.4148
ltibia 41.2023
lfoot -13.2226 -5.08603
ltoes -11.0712
821
root -1.46977 17.3367 -1.72176 6.52626 23.2567 1.45949
lowerback 12.8268 7.15358 -0.297324
upperback 6.24758 9.42683 -4.24415
thorax 0.157789 4.83499 -5.39251
lowerneck -0.92192 -3.79562 -4.43131
upperneck -0.846007 -5.00079 9.89564
head 0.293828 -2.48192 3.96512
rclavicle -2.34566e-014 -7.95139e-015
rhumerus 69.901 38.9298 -2.31446
rradius 93.3904
rwrist 12.6483
rhand -5.08306 20.7983
rfingers 7.12502
rthumb 20.7136 -8.11624
lclavicle -2.34566e-014 -7.95139e-015
lhumerus -23.8551 -42.534 75.6116
lradius 91.0847
lwrist 16.6505
lhand -3.98355 26.8331
lfingers 7.12502
lthumb 21.7698 55.6288
rfemur -27.9836 -18.8883 24.4693
rtibia 44.9376
rfoot -24.9052 -19.8603
rtoes -3.97984
lfemur -33.1389 -8.98346 -14.1915
ltibia 41.323
lfoot -13.2587 -5.08096
ltoes -10.9092
